#!OML:ASF Y:\EmotionMaleHayes\Project 1\Capture day 1\Session 1\Male1.ASF
:FULLY-SPECIFIED
:DEGREES
2411
root 3.95453 16.6542 17.5836 1034.47 282.495 1126.32
lowerback 4.71608 -2.43386 -12.5
upperback 0.905127 -3.85366 1.55694
thorax -0.763193 -1.93381 8.86305
lowerneck -26.1097 2.99042 7.96228
upperneck 18.5295 2.37618 -5.21125
head 10.3758 1.01384 -2.79067
rclavicle 4.47266e-015 8.74653e-015
rhumerus -52.5328 -10.7119 -74.3478
rradius 29.6739
rwrist 5.82349
rhand -5.68325 -31.3006
rfingers 7.12502
rthumb 20.1368 -60.277
lclavicle 4.47266e-015 8.74653e-015
lhumerus -26.392 -21.1126 93.2165
lradius 41.6412
lwrist -1.89005
lhand -16.2757 -24.3338
lfingers 7.12502
lthumb 9.93413 5.41178
rfemur -19.4808 -12.1232 12.228
rtibia 17.1705
rfoot -7.82588 -7.91832
rtoes 23.3696
lfemur 26.9435 6.9112 -25.0906
ltibia 12.5232
lfoot -16.7901 21.91
ltoes -10.3894
2412
root 3.79659 16.6803 17.583 1034.4 282.016 1126.17
lowerback 4.77993 -2.35036 -12.1581
upperback 0.985643 -3.7276 1.69847
thorax -0.75701 -1.876 8.81964
lowerneck -26.4202 3.1531 7.7152
upperneck 18.4393 2.61499 -4.99724
head 10.4076 1.12794 -2.63155
rclavicle 6.36111e-015 -2.38542e-015
rhumerus -52.0218 -10.1992 -74.7732
rradius 30.19
rwrist 5.37455
rhand -5.78516 -31.2467
rfingers 7.12502
rthumb 20.0389 -60.2334
lclavicle 6.36111e-015 -2.38542e-015
lhumerus -27.0689 -20.8291 93.8352
lradius 41.4174
lwrist -1.87546
lhand -16.0313 -24.4178
lfingers 7.12502
lthumb 10.17 5.31638
rfemur -18.5501 -12.1132 12.6711
rtibia 17.0353
rfoot -8.34227 -7.48793
rtoes 21.7839
lfemur 27.1183 7.13804 -24.3203
ltibia 13.2061
lfoot -13.8058 23.4374
ltoes -11.8765
2413
root 3.64904 16.7074 17.5782 1035.11 281.259 1125.34
lowerback 4.81382 -2.29954 -11.562
upperback 0.921897 -3.63286 1.90174
thorax -0.890875 -1.81708 8.70091
lowerneck -26.466 3.30865 7.75309
upperneck 18.4842 2.83775 -5.09749
head 10.4502 1.21959 -2.638
rclavicle 3.21037e-014 2.38542e-015
rhumerus -51.563 -9.53832 -75.3072
rradius 30.6944
rwrist 4.56801
rhand -5.79805 -31.7232
rfingers 7.12502
rthumb 20.0265 -60.7112
lclavicle 3.21037e-014 2.38542e-015
lhumerus -27.8727 -20.5527 94.382
lradius 41.0427
lwrist -1.8252
lhand -15.836 -24.2913
lfingers 7.12502
lthumb 10.3584 5.43359
rfemur -17.7759 -11.5989 13.5093
rtibia 16.7649
rfoot -8.86134 -7.46023
rtoes 20.5511
lfemur 27.0696 7.21076 -23.3198
ltibia 14.0286
lfoot -11.5132 24.3246
ltoes -10.9496
2414
root 3.50885 16.7401 17.5815 1036.13 280.831 1124.27
lowerback 4.92084 -2.3018 -11.0188
upperback 0.863665 -3.62106 2.00542
thorax -1.04301 -1.79956 8.50998
lowerneck -26.3201 3.53615 7.54805
upperneck 18.1792 3.15853 -4.79051
head 10.3272 1.39002 -2.43583
rclavicle 4.87022e-015 -7.95139e-015
rhumerus -50.8978 -9.11991 -75.7542
rradius 31.0159
rwrist 3.84711
rhand -5.99663 -31.9234
rfingers 7.12502
rthumb 19.8356 -60.9312
lclavicle 4.87022e-015 -7.95139e-015
lhumerus -28.6461 -20.4042 94.8561
lradius 40.8708
lwrist -1.70034
lhand -15.5887 -24.1622
lfingers 7.12502
lthumb 10.5969 5.55064
rfemur -17.0887 -11.6675 14.0506
rtibia 16.5746
rfoot -9.14299 -7.10897
rtoes 19.08
lfemur 26.6857 7.06177 -22.6976
ltibia 15.262
lfoot -10.6067 23.6161
ltoes -8.90919
2415
root 3.36321 16.7729 17.5837 1036.31 280.543 1123.99
lowerback 5.07959 -2.22812 -10.6301
upperback 0.715482 -3.52493 2.01438
thorax -1.33383 -1.72723 8.30894
lowerneck -24.2754 3.67236 6.32709
upperneck 16.4173 3.5515 -3.29111
head 9.3178 1.68172 -1.6415
rclavicle 1.40143e-014 -5.1684e-014
rhumerus -50.7041 -8.80234 -76.0231
rradius 31.4839
rwrist 3.25861
rhand -6.3338 -31.4153
rfingers 7.12502
rthumb 19.5114 -60.4563
lclavicle 1.40143e-014 -5.1684e-014
lhumerus -29.746 -20.5352 95.5196
lradius 40.742
lwrist -1.34629
lhand -15.661 -24.1413
lfingers 7.12502
lthumb 10.5272 5.57506
rfemur -16.252 -11.8489 14.3112
rtibia 16.354
rfoot -9.3074 -6.61783
rtoes 18.3407
lfemur 26.3531 7.02045 -22.2215
ltibia 16.5978
lfoot -9.6607 23.6926
ltoes -9.98993
2416
root 3.19517 16.8017 17.5924 1035.86 280.444 1124.25
lowerback 4.66865 -2.1966 -10.4081
upperback 0.923843 -3.41944 1.93973
thorax -0.924967 -1.70879 8.06759
lowerneck -25.2671 3.5395 6.71275
upperneck 17.0272 3.27784 -3.74627
head 9.70392 1.51988 -1.90156
rclavicle 2.16675e-014 -2.22639e-014
rhumerus -50.2428 -8.18492 -76.6983
rradius 32.5642
rwrist 2.05056
rhand -6.33334 -32.3451
rfingers 7.12502
rthumb 19.5119 -61.3861
lclavicle 2.16675e-014 -2.22639e-014
lhumerus -30.3875 -20.692 95.9914
lradius 40.5957
lwrist -1.17785
lhand -15.8224 -23.8688
lfingers 7.12502
lthumb 10.3715 5.85542
rfemur -14.9454 -12.6143 14.2225
rtibia 15.7318
rfoot -9.32788 -5.53772
rtoes 18.7276
lfemur 26.2753 7.07199 -21.9645
ltibia 17.8654
lfoot -9.14594 23.5883
ltoes -8.66344
2417
root 3.05196 16.8295 17.5884 1036.59 279.992 1123.49
lowerback 4.97825 -2.14406 -9.8809
upperback 0.564228 -3.36529 1.995
thorax -1.51629 -1.63241 7.85336
lowerneck -24.835 3.68155 6.86143
upperneck 17.0215 3.48047 -3.87213
head 9.64512 1.613 -1.94114
rclavicle 1.86858e-014 1.19271e-014
rhumerus -50.4764 -7.11878 -77.3948
rradius 33.6834
rwrist 0.809505
rhand -6.66019 -32.9493
rfingers 7.12502
rthumb 19.1976 -62.0218
lclavicle 1.86858e-014 1.19271e-014
lhumerus -31.8567 -20.2742 96.5566
lradius 40.6164
lwrist -1.53144
lhand -15.4129 -23.5046
lfingers 7.12502
lthumb 10.7665 6.19951
rfemur -14.1016 -12.7934 14.721
rtibia 15.2754
rfoot -9.47994 -4.88637
rtoes 19.4568
lfemur 25.7801 7.17913 -21.19
ltibia 19.4277
lfoot -9.55493 23.1152
ltoes -8.52977
2418
root 2.87923 16.8559 17.611 1034.91 280.707 1125.07
lowerback 4.85395 -2.2995 -10.2336
upperback 0.468437 -3.58703 1.71643
thorax -1.498 -1.73783 7.7604
lowerneck -24.7751 3.95051 6.89306
upperneck 16.9529 3.81138 -3.74373
head 9.62757 1.784 -1.84891
rclavicle -1.58034e-014 -1.66979e-014
rhumerus -50.2351 -6.20029 -77.9856
rradius 34.4438
rwrist -0.0785742
rhand -7.07449 -33.3346
rfingers 7.12502
rthumb 18.7992 -62.4462
lclavicle -1.58034e-014 -1.66979e-014
lhumerus -32.84 -19.84 96.9887
lradius 40.3689
lwrist -1.71278
lhand -14.736 -23.1625
lfingers 7.12502
lthumb 11.4194 6.50649
rfemur -12.8565 -14.8232 13.5129
rtibia 14.9236
rfoot -9.44898 -2.96105
rtoes 20.4442
lfemur 25.4167 7.16869 -21.9145
ltibia 20.9673
lfoot -9.42181 22.3863
ltoes -10.9396
2419
root 2.7291 16.8698 17.5799 1039.41 279.339 1120.3
lowerback 5.00224 -2.16357 -9.01225
upperback 0.461091 -3.34518 2.18779
thorax -1.68015 -1.61419 7.56699
lowerneck -24.9713 3.91785 6.78648
upperneck 17.3182 3.81998 -3.83432
head 9.79145 1.76947 -1.86239
rclavicle -2.52953e-014 -1.43125e-014
rhumerus -49.6881 -5.81128 -78.1986
rradius 34.7958
rwrist -0.53455
rhand -7.03399 -33.276
rfingers 7.12502
rthumb 18.8381 -62.3838
lclavicle -2.52953e-014 -1.43125e-014
lhumerus -33.5891 -19.6867 97.4291
lradius 40.0224
lwrist -1.67627
lhand -14.3268 -22.8158
lfingers 7.12502
lthumb 11.814 6.831
rfemur -11.6478 -13.0865 15.5022
rtibia 13.812
rfoot -9.78419 -3.68655
rtoes 21.7635
lfemur 24.9978 7.26434 -19.4978
ltibia 22.779
lfoot -7.34122 22.4237
ltoes -8.33237
2420
root 2.58136 16.8882 17.5781 1039.88 279.208 1119.76
lowerback 5.05095 -2.11871 -8.7955
upperback 0.337886 -3.28028 2.20052
thorax -1.8607 -1.56853 7.46089
lowerneck -24.7388 3.86019 6.50041
upperneck 17.3241 3.83096 -3.70742
head 9.74521 1.77271 -1.77153
rclavicle 1.51573e-014 -1.19271e-014
rhumerus -49.3287 -5.58945 -78.3064
rradius 35.317
rwrist -0.903573
rhand -7.11083 -32.6966
rfingers 7.12502
rthumb 18.7642 -61.8116
lclavicle 1.51573e-014 -1.19271e-014
lhumerus -34.5136 -19.709 97.9494
lradius 39.8016
lwrist -1.54705
lhand -14.2284 -22.5986
lfingers 7.12502
lthumb 11.9089 7.0427
rfemur -10.7308 -13.4474 15.6413
rtibia 13.415
rfoot -9.95906 -3.16952
rtoes 20.4923
lfemur 24.2469 7.3642 -19.0339
ltibia 24.6518
lfoot -1.74469 23.0141
ltoes 4.96373
2421
root 2.44076 16.9042 17.5713 1041.18 278.873 1118.37
lowerback 5.20666 -2.02257 -8.33571
upperback 0.242061 -3.1403 2.2508
thorax -2.097 -1.48654 7.25692
lowerneck -26.8879 3.60889 7.87906
upperneck 19.4959 3.38612 -5.829
head 10.9551 1.38356 -2.85053
rclavicle 3.56818e-014 -2.54444e-014
rhumerus -48.9813 -5.18549 -78.5925
rradius 36.1217
rwrist -1.39616
rhand -7.37186 -32.7717
rfingers 7.12502
rthumb 18.5131 -61.9108
lclavicle 3.56818e-014 -2.54444e-014
lhumerus -35.2904 -19.7636 98.409
lradius 39.456
lwrist -1.57542
lhand -14.418 -22.6356
lfingers 7.12502
lthumb 11.726 7.01622
rfemur -9.8442 -12.993 16.0101
rtibia 12.861
rfoot -10.3069 -2.93437
rtoes 23.3232
lfemur 23.4807 7.4431 -18.2984
ltibia 26.5274
lfoot -0.483202 23.0959
ltoes 5.81287
